<?xml version="1.0" standalone="no"?>
<!DOCTYPE svg PUBLIC "-//W3C//DTD SVG 20010904//EN"
 "http://www.w3.org/TR/2001/REC-SVG-20010904/DTD/svg10.dtd">
<svg version="1.0" xmlns="http://www.w3.org/2000/svg"
 width="300.000000pt" height="300.000000pt" viewBox="0 0 300.000000 300.000000"
 preserveAspectRatio="xMidYMid meet">
<metadata>
Created by potrace 1.10, written by Peter Selinger 2001-2011
</metadata>
<g transform="translate(0.000000,300.000000) scale(0.050000,-0.050000)"
fill="#000000" stroke="none">
<path d="M2044 5625 c-52 -142 -491 -1365 -518 -1441 -27 -77 -27 -105 3 -286
36 -210 32 -258 -18 -258 -32 0 -79 -71 -63 -97 6 -9 37 -170 70 -358 63 -360
84 -419 156 -438 53 -13 31 99 235 -1167 94 -577 175 -1079 181 -1115 l12 -65
739 0 c406 0 739 7 739 15 0 8 68 415 151 905 83 490 155 922 160 960 5 39 26
160 48 270 22 110 40 203 40 206 1 4 9 1 20 -5 26 -16 117 29 131 65 15 41
130 714 130 765 0 28 -17 43 -60 52 -70 14 -70 12 -23 267 l36 190 -267 790
c-146 434 -266 792 -266 795 0 3 -364 5 -808 5 l-808 0 -20 -55z m-469 -2181
c-3 -149 50 -432 88 -473 28 -31 22 -144 -6 -116 -13 13 -26 44 -29 69 -2 25
-6 51 -7 56 -1 6 -10 -3 -21 -20 -13 -21 -15 -6 -7 45 8 46 4 75 -8 75 -12 0
-21 20 -21 45 0 25 -10 81 -21 125 -12 44 -17 96 -11 115 6 19 1 35 -11 35
-16 0 -16 11 -2 39 13 24 14 43 2 50 -24 15 -19 97 7 115 40 27 50 -7 47 -160z
m2634 149 c22 8 24 -6 9 -73 -10 -46 -22 -120 -27 -166 -18 -194 -37 -293 -53
-283 -10 6 -12 -3 -6 -20 17 -43 -9 -135 -33 -121 -10 7 -20 -4 -21 -24 -5
-81 -9 -93 -29 -99 -31 -11 -32 89 -1 139 31 49 62 170 54 211 -2 16 5 21 18
13 15 -9 20 8 16 53 -7 81 26 417 38 383 5 -13 21 -19 35 -13z m-129 -403
c-15 -93 -35 -170 -45 -170 -11 0 -15 12 -9 26 5 15 21 96 35 181 13 85 29
149 35 144 6 -6 -1 -87 -16 -181z"/>
</g>
</svg>
